<svg width="420" height="96" viewBox="0 0 420 96" fill="none" xmlns="http://www.w3.org/2000/svg">
  <rect width="420" height="96" rx="18" fill="#111827"/>
  <path d="M52 70L69.5 26H84L101.5 70H89.2L85.7 60.6H67.5L63.9 70H52ZM70.8 51.2H82.4L76.6 35.6L70.8 51.2Z" fill="#F59E0B"/>
  <path d="M114 70V26H125.4V44.1L141.8 26H155.7L138 45.2L156.7 70H143.2L130.5 52.3L125.4 57.8V70H114Z" fill="white"/>
  <path d="M167 70V26H178.4V70H167Z" fill="white"/>
  <path d="M191 70V26H225.7V35.3H202.4V43.3H223.7V52.1H202.4V60.7H226.1V70H191Z" fill="white"/>
  <path d="M238 70V26H256.9C267.8 26 274.2 31.5 274.2 40.3C274.2 46.6 271 51.2 265.6 53.3L275.1 70H262.3L254.3 55.5H249.4V70H238ZM249.4 46.6H256.2C260.7 46.6 263 44.5 263 40.8C263 37.2 260.7 35.1 256.2 35.1H249.4V46.6Z" fill="white"/>
  <path d="M294.1 70.9C284.7 70.9 276.7 67.6 271.4 61.2L278 53.3C282.1 57.8 287.8 60.2 294.5 60.2C299.6 60.2 302.1 58.5 302.1 55.8C302.1 53 299.5 51.9 292.6 50.4C281.8 48.1 273.6 45.2 273.6 36.7C273.6 28 281 25.1 291.8 25.1C300.5 25.1 307.1 27.8 312 33.1L305.3 41.1C301.3 37.3 296.7 35.5 291.5 35.5C287 35.5 284.8 37 284.8 39.5C284.8 42.1 287.4 43.1 294.3 44.7C305.6 47.1 313.4 50.3 313.4 58.7C313.4 67.8 305.7 70.9 294.1 70.9Z" fill="#FBBF24"/>
  <text x="327" y="59" fill="white" font-family="Arial, sans-serif" font-size="28" font-weight="700">AKROTES</text>
</svg>
